<svg width="251" height="154" viewBox="0 0 251 154" fill="none" xmlns="http://www.w3.org/2000/svg">
<path d="M27.438 73.672H34.542V87.304C32.718 88.68 30.606 89.736 28.206 90.472C25.806 91.208 23.39 91.576 20.958 91.576C17.47 91.576 14.334 90.84 11.55 89.368C8.766 87.864 6.574 85.8 4.974 83.176C3.406 80.52 2.622 77.528 2.622 74.2C2.622 70.872 3.406 67.896 4.974 65.272C6.574 62.616 8.782 60.552 11.598 59.08C14.414 57.576 17.582 56.824 21.102 56.824C24.046 56.824 26.718 57.32 29.118 58.312C31.518 59.304 33.534 60.744 35.166 62.632L30.174 67.24C27.774 64.712 24.878 63.448 21.486 63.448C19.342 63.448 17.438 63.896 15.774 64.792C14.11 65.688 12.814 66.952 11.886 68.584C10.958 70.216 10.494 72.088 10.494 74.2C10.494 76.28 10.958 78.136 11.886 79.768C12.814 81.4 14.094 82.68 15.726 83.608C17.39 84.504 19.278 84.952 21.39 84.952C23.63 84.952 25.646 84.472 27.438 83.512V73.672ZM63.1733 91L56.6933 81.64H56.3093H49.5413V91H41.7653V57.4H56.3093C59.2853 57.4 61.8613 57.896 64.0373 58.888C66.2453 59.88 67.9413 61.288 69.1253 63.112C70.3093 64.936 70.9013 67.096 70.9013 69.592C70.9013 72.088 70.2933 74.248 69.0773 76.072C67.8933 77.864 66.1973 79.24 63.9893 80.2L71.5253 91H63.1733ZM63.0293 69.592C63.0293 67.704 62.4213 66.264 61.2053 65.272C59.9893 64.248 58.2133 63.736 55.8773 63.736H49.5413V75.448H55.8773C58.2133 75.448 59.9893 74.936 61.2053 73.912C62.4213 72.888 63.0293 71.448 63.0293 69.592ZM103.078 84.76V91H77.0621V57.4H102.454V63.64H84.7901V70.936H100.39V76.984H84.7901V84.76H103.078ZM135.281 84.76V91H109.265V57.4H134.657V63.64H116.993V70.936H132.593V76.984H116.993V84.76H135.281ZM172.284 57.4V91H165.9L149.148 70.6V91H141.468V57.4H147.9L164.604 77.8V57.4H172.284ZM34.4959 101.1V134H26.8819V120.511H11.9359V134H4.3219V101.1H11.9359V114.072H26.8819V101.1H34.4959ZM58.2129 134.564C54.7976 134.564 51.7112 133.828 48.9539 132.355C46.2279 130.882 44.0816 128.861 42.5149 126.292C40.9796 123.691 40.2119 120.777 40.2119 117.55C40.2119 114.323 40.9796 111.424 42.5149 108.855C44.0816 106.254 46.2279 104.218 48.9539 102.745C51.7112 101.272 54.7976 100.536 58.2129 100.536C61.6282 100.536 64.6989 101.272 67.4249 102.745C70.1509 104.218 72.2972 106.254 73.8639 108.855C75.4306 111.424 76.2139 114.323 76.2139 117.55C76.2139 120.777 75.4306 123.691 73.8639 126.292C72.2972 128.861 70.1509 130.882 67.4249 132.355C64.6989 133.828 61.6282 134.564 58.2129 134.564ZM58.2129 128.078C60.1556 128.078 61.9102 127.639 63.4769 126.762C65.0436 125.853 66.2656 124.6 67.1429 123.002C68.0516 121.404 68.5059 119.587 68.5059 117.55C68.5059 115.513 68.0516 113.696 67.1429 112.098C66.2656 110.5 65.0436 109.262 63.4769 108.385C61.9102 107.476 60.1556 107.022 58.2129 107.022C56.2702 107.022 54.5156 107.476 52.9489 108.385C51.3822 109.262 50.1446 110.5 49.2359 112.098C48.3586 113.696 47.9199 115.513 47.9199 117.55C47.9199 119.587 48.3586 121.404 49.2359 123.002C50.1446 124.6 51.3822 125.853 52.9489 126.762C54.5156 127.639 56.2702 128.078 58.2129 128.078ZM96.5532 134.564C91.8532 134.564 88.1872 133.264 85.5552 130.663C82.9545 128.062 81.6542 124.349 81.6542 119.524V101.1H89.2682V119.242C89.2682 125.133 91.7122 128.078 96.6002 128.078C98.9815 128.078 100.799 127.373 102.052 125.963C103.305 124.522 103.932 122.281 103.932 119.242V101.1H111.452V119.524C111.452 124.349 110.136 128.062 107.504 130.663C104.903 133.264 101.253 134.564 96.5532 134.564ZM129.786 134.564C127.186 134.564 124.663 134.219 122.219 133.53C119.807 132.809 117.864 131.885 116.391 130.757L118.976 125.023C120.386 126.057 122.063 126.887 124.005 127.514C125.948 128.141 127.891 128.454 129.833 128.454C131.995 128.454 133.593 128.141 134.627 127.514C135.661 126.856 136.178 125.994 136.178 124.929C136.178 124.146 135.865 123.503 135.238 123.002C134.643 122.469 133.86 122.046 132.888 121.733C131.948 121.42 130.664 121.075 129.034 120.699C126.528 120.104 124.475 119.508 122.877 118.913C121.279 118.318 119.901 117.362 118.741 116.046C117.613 114.73 117.049 112.975 117.049 110.782C117.049 108.871 117.566 107.147 118.6 105.612C119.634 104.045 121.185 102.808 123.253 101.899C125.353 100.99 127.906 100.536 130.914 100.536C133.014 100.536 135.066 100.787 137.071 101.288C139.077 101.789 140.831 102.51 142.335 103.45L139.985 109.231C136.946 107.508 133.907 106.646 130.867 106.646C128.737 106.646 127.154 106.991 126.12 107.68C125.118 108.369 124.616 109.278 124.616 110.406C124.616 111.534 125.196 112.38 126.355 112.944C127.546 113.477 129.348 114.009 131.76 114.542C134.267 115.137 136.319 115.733 137.917 116.328C139.515 116.923 140.878 117.863 142.006 119.148C143.166 120.433 143.745 122.172 143.745 124.365C143.745 126.245 143.213 127.968 142.147 129.535C141.113 131.07 139.547 132.292 137.447 133.201C135.348 134.11 132.794 134.564 129.786 134.564ZM174.422 127.89V134H148.948V101.1H173.811V107.21H156.515V114.354H171.79V120.276H156.515V127.89H174.422Z" fill="#608263"/>
<path d="M136 52L162 7L245 151H79L86 138.5" stroke="#608263" stroke-width="6"/>
</svg>
