<svg width="88" height="120" viewBox="0 0 88 120" fill="none" xmlns="http://www.w3.org/2000/svg">
<path d="M80.8571 66.9891H67.096C79.9418 53.1291 80.5798 33.7465 80.2006 25.6409C80.1352 24.2407 79.2687 23.048 77.9398 22.5274C76.5893 21.998 75.0551 22.3083 74.0309 23.317L61.317 35.8369C60.6254 36.518 60.6169 37.6308 61.298 38.3227C61.9791 39.0141 63.0919 39.0225 63.7838 38.3416L76.4975 25.8218C76.519 25.8007 76.5385 25.7815 76.587 25.7864C76.6308 25.7873 76.6693 25.8035 76.6894 25.8166C77.0686 33.9502 76.3808 54.0776 62.0982 66.9891H53.1544C53.3087 66.6663 53.457 66.3412 53.6042 66.0157C57.0551 62.5324 63.5391 55.4034 67.8338 47.1091C68.2801 46.2471 67.9433 45.1863 67.081 44.7401C66.2192 44.2936 65.1584 44.6302 64.7119 45.4929C62.4122 49.9343 59.3897 54.0806 56.6037 57.4463C57.6172 53.438 58.1412 49.3261 58.1412 45.2145C58.1412 29.253 50.4734 9.72211 47.1767 2.06578C46.636 0.810703 45.3894 0 44.0002 0C42.6111 0 41.3644 0.810703 40.824 2.06555C37.5272 9.72188 29.8592 29.2533 29.8592 45.2142C29.8592 49.3256 30.3835 53.4377 31.3967 57.446C28.6109 54.0804 25.5884 49.9343 23.2885 45.4929C22.842 44.6306 21.7808 44.2941 20.9194 44.7401C20.0572 45.1863 19.7204 46.2473 20.1666 47.1091C24.4613 55.4034 30.9455 62.5324 34.3962 66.0157C34.5434 66.3412 34.6918 66.6663 34.846 66.9891H25.902C11.623 54.0809 10.932 33.9605 11.311 25.8164C11.3314 25.8033 11.3696 25.7873 11.4132 25.7864C11.4575 25.781 11.4812 25.8009 11.5025 25.8218L24.2349 38.3597C24.9263 39.0405 26.0394 39.0323 26.7207 38.3407C27.4018 37.6488 27.3933 36.536 26.7017 35.8549L13.969 23.317C12.9451 22.3085 11.4104 21.9982 10.0604 22.5274C8.73123 23.048 7.86498 24.2409 7.79959 25.6406C7.42037 33.7465 8.05834 53.1293 20.9042 66.9891H7.14334C3.40225 66.9891 0.358887 70.0324 0.358887 73.7733C0.358887 77.5144 3.40225 80.5577 7.14334 80.5577H8.48772L16.3569 114.303C17.139 117.657 20.0909 120 23.5355 120H64.4651C67.9095 120 70.8617 117.657 71.6438 114.303L79.5129 80.5577H80.8573C84.5984 80.5577 87.6418 77.5144 87.6418 73.7733C87.6415 70.0327 84.5982 66.9891 80.8571 66.9891ZM44.0002 3.57891C47.2388 11.119 54.6254 29.9902 54.6254 45.2145C54.6254 54.5194 51.7976 62.0597 49.2284 66.9893H45.758V32.8097C45.758 31.8387 44.9712 31.0519 44.0002 31.0519C43.0292 31.0519 42.2424 31.8387 42.2424 32.8097V66.9891H38.772C36.2028 62.0592 33.3748 54.5189 33.3748 45.2142C33.3748 29.9909 40.7614 11.1187 44.0002 3.57891ZM80.8571 77.0423H25.8364C24.8654 77.0423 24.0786 77.8291 24.0786 78.8002C24.0786 79.7712 24.8654 80.558 25.8364 80.558H75.9031L68.2201 113.504C67.8108 115.259 66.2668 116.484 64.4651 116.484H23.5355C21.7337 116.484 20.1898 115.259 19.7806 113.504L12.0976 80.558H17.6194C18.5904 80.558 19.3772 79.7712 19.3772 78.8002C19.3772 77.8291 18.5904 77.0423 17.6194 77.0423H7.14334C5.341 77.0423 3.87451 75.5759 3.87451 73.7735C3.87451 71.9712 5.341 70.5049 7.14334 70.5049H80.8571C82.6594 70.5049 84.1259 71.9712 84.1259 73.7735C84.1259 75.5759 82.6594 77.0423 80.8571 77.0423Z" fill="#608263"/>
</svg>
