<svg width="29" height="15" viewBox="0 0 29 15" fill="none" xmlns="http://www.w3.org/2000/svg">
<path d="M0.906226 2.06239H28.0937C28.594 2.06239 28.9999 1.65636 28.9999 1.15617C28.9999 0.655896 28.5939 0.249939 28.0937 0.249939H0.906226C0.405956 0.249939 0 0.655971 0 1.15617C0 1.65636 0.406032 2.06239 0.906226 2.06239Z" fill="black"/>
<path d="M28.0937 6.59375H0.906226C0.405956 6.59375 0 6.99978 0 7.49997C0 8.00016 0.406032 8.40619 0.906226 8.40619H28.0937C28.594 8.40619 28.9999 8.00016 28.9999 7.49997C28.9999 6.99978 28.594 6.59375 28.0937 6.59375Z" fill="black"/>
<path d="M28.0937 12.9375H9.96873C9.46846 12.9375 9.0625 13.3436 9.0625 13.8438C9.0625 14.344 9.46853 14.75 9.96873 14.75H28.0937C28.594 14.75 28.9999 14.344 28.9999 13.8438C29 13.3435 28.594 12.9375 28.0937 12.9375Z" fill="black"/>
</svg>
