<svg width="98" height="120" viewBox="0 0 98 120" fill="none" xmlns="http://www.w3.org/2000/svg">
<path d="M96.3535 12.7631C94.5887 11.9972 93.4482 10.2607 93.4482 8.3393C93.4482 6.34828 94.6454 4.58836 96.4993 3.855C97.2669 3.55102 97.7631 2.82258 97.7631 1.99875C97.7631 0.896719 96.8663 0 95.7643 0H8.57611C3.97768 0 0.236816 3.74109 0.236816 8.3393V111.661C0.236816 116.259 3.97768 120 8.57611 120H90.65C94.572 120 97.7628 116.809 97.7628 112.887V106.505C97.7628 105.534 96.9758 104.747 96.005 104.747C95.0342 104.747 94.2472 105.534 94.2472 106.505V112.887C94.2472 114.87 92.6335 116.484 90.65 116.484H17.7538V33.2562C17.7538 32.2852 16.9667 31.4984 15.996 31.4984C15.0252 31.4984 14.2381 32.2852 14.2381 33.2562V116.484H8.57611C5.91619 116.484 3.75244 114.321 3.75244 111.661V15.1357C5.11533 16.1058 6.77963 16.6788 8.57611 16.6788H14.2379V25.0155C14.2379 25.9866 15.0249 26.7734 15.9957 26.7734C16.9665 26.7734 17.7535 25.9866 17.7535 25.0155V16.6788H94.2472V98.2301C94.2472 99.2011 95.0342 99.9879 96.005 99.9879C96.9758 99.9879 97.7628 99.2011 97.7628 98.2301C97.7584 43.8598 97.7722 14.8896 97.7459 14.6895C97.663 13.845 97.1382 13.1037 96.3535 12.7631ZM8.57611 13.1632C5.91619 13.1632 3.75244 10.9992 3.75244 8.3393C3.75244 5.67938 5.91643 3.51562 8.57611 3.51562H91.4588C90.8138 4.4257 90.3589 5.46703 90.1217 6.58148H11.5138C10.543 6.58148 9.75596 7.36828 9.75596 8.3393C9.75596 9.31031 10.543 10.0971 11.5138 10.0971H90.1248C90.3643 11.208 90.8225 12.2508 91.4701 13.1632H8.57611Z" fill="#608263"/>
</svg>
