<svg width="78" height="36" viewBox="0 0 78 36" fill="none" xmlns="http://www.w3.org/2000/svg">
<path d="M11.5133 8.058H14.7693V14.306C13.9333 14.9367 12.9653 15.4207 11.8653 15.758C10.7653 16.0953 9.65792 16.264 8.54325 16.264C6.94458 16.264 5.50725 15.9267 4.23125 15.252C2.95525 14.5627 1.95058 13.6167 1.21725 12.414C0.498583 11.1967 0.13925 9.82533 0.13925 8.3C0.13925 6.77467 0.498583 5.41067 1.21725 4.208C1.95058 2.99067 2.96258 2.04467 4.25325 1.37C5.54392 0.680666 6.99592 0.336 8.60925 0.336C9.95858 0.336 11.1833 0.563333 12.2833 1.018C13.3833 1.47267 14.3073 2.13267 15.0553 2.998L12.7673 5.11C11.6673 3.95133 10.3399 3.372 8.78525 3.372C7.80258 3.372 6.92992 3.57733 6.16725 3.988C5.40458 4.39867 4.81058 4.978 4.38525 5.726C3.95992 6.474 3.74725 7.332 3.74725 8.3C3.74725 9.25333 3.95992 10.104 4.38525 10.852C4.81058 11.6 5.39725 12.1867 6.14525 12.612C6.90792 13.0227 7.77325 13.228 8.74125 13.228C9.76792 13.228 10.6919 13.008 11.5133 12.568V8.058ZM27.8919 16L24.9219 11.71H24.7459H21.6439V16H18.0799V0.599999H24.7459C26.1099 0.599999 27.2906 0.827332 28.2879 1.282C29.2999 1.73667 30.0772 2.382 30.6199 3.218C31.1626 4.054 31.4339 5.044 31.4339 6.188C31.4339 7.332 31.1552 8.322 30.5979 9.158C30.0552 9.97933 29.2779 10.61 28.2659 11.05L31.7199 16H27.8919ZM27.8259 6.188C27.8259 5.32267 27.5472 4.66267 26.9899 4.208C26.4326 3.73867 25.6186 3.504 24.5479 3.504H21.6439V8.872H24.5479C25.6186 8.872 26.4326 8.63733 26.9899 8.168C27.5472 7.69867 27.8259 7.03867 27.8259 6.188ZM46.1816 13.14V16H34.2576V0.599999H45.8956V3.46H37.7996V6.804H44.9496V9.576H37.7996V13.14H46.1816ZM60.9414 13.14V16H49.0174V0.599999H60.6554V3.46H52.5594V6.804H59.7094V9.576H52.5594V13.14H60.9414ZM77.9012 0.599999V16H74.9752L67.2972 6.65V16H63.7772V0.599999H66.7252L74.3812 9.95V0.599999H77.9012ZM15.3705 20.3V35H11.9685V28.973H5.29051V35H1.88851V20.3H5.29051V26.096H11.9685V20.3H15.3705ZM25.9675 35.252C24.4415 35.252 23.0625 34.923 21.8305 34.265C20.6125 33.607 19.6535 32.704 18.9535 31.556C18.2675 30.394 17.9245 29.092 17.9245 27.65C17.9245 26.208 18.2675 24.913 18.9535 23.765C19.6535 22.603 20.6125 21.693 21.8305 21.035C23.0625 20.377 24.4415 20.048 25.9675 20.048C27.4935 20.048 28.8655 20.377 30.0835 21.035C31.3015 21.693 32.2605 22.603 32.9605 23.765C33.6605 24.913 34.0105 26.208 34.0105 27.65C34.0105 29.092 33.6605 30.394 32.9605 31.556C32.2605 32.704 31.3015 33.607 30.0835 34.265C28.8655 34.923 27.4935 35.252 25.9675 35.252ZM25.9675 32.354C26.8355 32.354 27.6195 32.158 28.3195 31.766C29.0195 31.36 29.5655 30.8 29.9575 30.086C30.3635 29.372 30.5665 28.56 30.5665 27.65C30.5665 26.74 30.3635 25.928 29.9575 25.214C29.5655 24.5 29.0195 23.947 28.3195 23.555C27.6195 23.149 26.8355 22.946 25.9675 22.946C25.0995 22.946 24.3155 23.149 23.6155 23.555C22.9155 23.947 22.3625 24.5 21.9565 25.214C21.5645 25.928 21.3685 26.74 21.3685 27.65C21.3685 28.56 21.5645 29.372 21.9565 30.086C22.3625 30.8 22.9155 31.36 23.6155 31.766C24.3155 32.158 25.0995 32.354 25.9675 32.354ZM43.0982 35.252C40.9982 35.252 39.3602 34.671 38.1842 33.509C37.0222 32.347 36.4412 30.688 36.4412 28.532V20.3H39.8432V28.406C39.8432 31.038 40.9352 32.354 43.1192 32.354C44.1832 32.354 44.9952 32.039 45.5552 31.409C46.1152 30.765 46.3952 29.764 46.3952 28.406V20.3H49.7552V28.532C49.7552 30.688 49.1672 32.347 47.9912 33.509C46.8292 34.671 45.1982 35.252 43.0982 35.252ZM57.947 35.252C56.785 35.252 55.658 35.098 54.566 34.79C53.488 34.468 52.62 34.055 51.962 33.551L53.117 30.989C53.747 31.451 54.496 31.822 55.364 32.102C56.232 32.382 57.1 32.522 57.968 32.522C58.934 32.522 59.648 32.382 60.11 32.102C60.572 31.808 60.803 31.423 60.803 30.947C60.803 30.597 60.663 30.31 60.383 30.086C60.117 29.848 59.767 29.659 59.333 29.519C58.913 29.379 58.339 29.225 57.611 29.057C56.491 28.791 55.574 28.525 54.86 28.259C54.146 27.993 53.53 27.566 53.012 26.978C52.508 26.39 52.256 25.606 52.256 24.626C52.256 23.772 52.487 23.002 52.949 22.316C53.411 21.616 54.104 21.063 55.028 20.657C55.966 20.251 57.107 20.048 58.451 20.048C59.389 20.048 60.306 20.16 61.202 20.384C62.098 20.608 62.882 20.93 63.554 21.35L62.504 23.933C61.146 23.163 59.788 22.778 58.43 22.778C57.478 22.778 56.771 22.932 56.309 23.24C55.861 23.548 55.637 23.954 55.637 24.458C55.637 24.962 55.896 25.34 56.414 25.592C56.946 25.83 57.751 26.068 58.829 26.306C59.949 26.572 60.866 26.838 61.58 27.104C62.294 27.37 62.903 27.79 63.407 28.364C63.925 28.938 64.184 29.715 64.184 30.695C64.184 31.535 63.946 32.305 63.47 33.005C63.008 33.691 62.308 34.237 61.37 34.643C60.432 35.049 59.291 35.252 57.947 35.252ZM77.8906 32.27V35H66.5086V20.3H77.6176V23.03H69.8896V26.222H76.7146V28.868H69.8896V32.27H77.8906Z" fill="#608263"/>
</svg>
