<svg width="108" height="120" viewBox="0 0 108 120" fill="none" xmlns="http://www.w3.org/2000/svg">
<path d="M106.208 62.9652L97.1801 49.7785C95.7694 47.7179 94.9048 45.2851 94.6794 42.7435C93.6429 31.0499 88.2809 20.2316 79.5814 12.2811C61.1269 -4.58404 32.3447 -4.09514 14.5538 13.8474C5.78888 22.6874 0.970131 34.46 0.984897 46.997C1.00037 60.065 6.38044 72.2335 15.6568 81.013C21.3891 86.4385 24.8874 93.5164 25.6315 101.107H25.3742C21.9469 101.107 19.1583 103.895 19.1583 107.323V113.784C19.1583 117.212 21.9467 120 25.3742 120H71.3689C74.7962 120 77.5847 117.212 77.5847 113.784V107.323C77.5847 104.198 75.2663 101.605 72.2593 101.172V98.117H90.2832C95.4441 98.117 99.3444 93.4524 98.4439 88.3799L95.2044 70.1291H102.431C106.107 70.1289 108.287 66.001 106.208 62.9652ZM102.431 66.6132H95.1547C92.9958 66.6132 91.3557 68.5639 91.734 70.6944L94.9822 88.9942C95.5015 91.9201 93.2497 94.6011 90.2829 94.6011H72.2173C70.3018 94.6011 68.7434 96.1595 68.7434 98.0753V101.107H40.4063C39.4353 101.107 38.6485 101.894 38.6485 102.864C38.6485 103.835 39.4353 104.622 40.4063 104.622H71.3689C72.8579 104.622 74.0691 105.834 74.0691 107.323V113.784C74.0691 115.273 72.8579 116.484 71.3689 116.484H25.3742C23.8852 116.484 22.674 115.273 22.674 113.784V107.323C22.674 105.834 23.8852 104.622 25.3742 104.622H32.1835C33.1545 104.622 33.9413 103.835 33.9413 102.864C33.9413 101.894 33.1545 101.107 32.1835 101.107H29.1643C28.4112 92.5419 24.5129 84.5539 18.0734 78.4595C9.33521 70.1891 4.51482 59.0141 4.50076 46.9928C4.48693 35.391 8.94404 24.4986 17.0508 16.3229C33.4672 -0.233574 60.0969 -0.763026 77.2102 14.8766C85.2589 22.232 90.2194 32.2391 91.178 43.0543C91.4565 46.1954 92.5292 49.2074 94.2797 51.7649L103.308 64.9515C103.79 65.6567 103.287 66.6132 102.431 66.6132Z" fill="#608263"/>
<path d="M45.8419 16.2256C39.5396 16.2256 33.5323 18.1932 28.4698 21.9153C27.6875 22.4904 27.5197 23.5906 28.0946 24.3727C28.6697 25.1546 29.7697 25.3229 30.552 24.7477C35.007 21.4723 40.294 19.7412 45.8417 19.7412C60.0903 19.7412 71.6822 31.3332 71.6822 45.5818C71.6822 52.9301 68.599 59.5721 63.6584 64.2816C58.3946 61.9043 52.7975 60.6286 46.9885 60.4805V57.1294C47.8784 57.3387 48.949 57.5042 50.112 57.5042C51.6209 57.5042 53.2852 57.2257 54.9092 56.4033C58.4297 54.6204 60.7433 50.8435 61.7853 45.1775C61.7855 45.177 61.7855 45.1765 61.7855 45.1761C61.9203 44.4408 61.6416 43.6932 61.058 43.2249C60.4768 42.7585 59.689 42.6483 59.0035 42.9378C54.5895 44.7994 50.7605 42.1709 46.9882 45.1547V43.5973C47.0855 42.7266 47.3993 38.5348 44.8154 35.8918C40.883 31.8708 35.2524 35.1197 31.4649 34.04C30.7554 33.8379 29.9937 34.0407 29.4776 34.5696C28.9601 35.1003 28.7759 35.869 28.9967 36.5764C28.9969 36.5766 28.9969 36.5771 28.9972 36.5773C30.6324 41.8018 33.2311 45.079 36.7212 46.3179C38.933 47.1033 41.2709 46.9653 43.4726 46.2359V60.5288C38.1003 60.814 32.9187 62.0717 28.025 64.2818C18.5363 55.2371 17.3335 40.6128 25.0904 30.1803C25.6697 29.4012 25.5075 28.3001 24.7285 27.7207C23.9497 27.1409 22.8483 27.3036 22.2692 28.0824C7.94676 47.3457 21.7993 74.9382 45.8415 74.9382C61.9875 74.9382 75.1976 61.8087 75.1976 45.582C75.1981 29.3947 62.0288 16.2256 45.8419 16.2256ZM48.8351 48.2093C50.8088 46.2321 52.924 47.7645 57.769 46.9236C56.8372 50.1024 55.3538 52.2275 53.3429 53.2557C51.0136 54.4468 48.3973 53.9255 47.0021 53.4896C47.0829 52.0674 47.4333 49.613 48.8351 48.2093ZM37.8978 43.0046C35.9677 42.3195 34.3803 40.5493 33.1629 37.7307C37.6761 37.7956 40.4595 36.4793 42.2942 38.3414C43.3395 39.4025 43.5565 41.2364 43.5436 42.4229C42.4168 42.9636 40.126 43.7958 37.8978 43.0046ZM31.1047 66.7955C35.7811 64.9285 40.7248 63.9802 45.8419 63.9802C50.959 63.9802 55.9027 64.9285 60.5792 66.7955C56.3961 69.7104 51.3158 71.4225 45.8419 71.4225C40.3681 71.4225 35.2878 69.7102 31.1047 66.7955Z" fill="#608263"/>
</svg>
