<svg width="24" height="24" viewBox="0 0 24 24" fill="none" xmlns="http://www.w3.org/2000/svg">
<path d="M23.1728 20.2931H13.2462C12.7896 20.2931 12.419 20.6636 12.419 21.1211C12.419 21.5786 12.7896 21.9491 13.2462 21.9491L23.1728 21.9252C23.6295 21.9252 24.0001 21.5786 24.0001 21.1211C24 20.6636 23.6303 20.2931 23.1728 20.2931ZM11.5918 2.07366L23.1728 2.07201C23.6295 2.07201 24.0001 1.70308 24.0001 1.24561C24.0001 0.788132 23.6295 0.417557 23.1728 0.417557H11.5918C11.1352 0.417557 10.7646 0.788132 10.7646 1.24561C10.7646 1.70308 11.1352 2.07366 11.5918 2.07366ZM12.9873 15.5581C12.663 15.2321 12.1369 15.2321 11.8127 15.5581L7.45572 20.5718V0.417557H5.80131V20.6016L1.41785 15.5581C1.09359 15.2321 0.567451 15.2321 0.243227 15.5581C-0.0810756 15.884 -0.0810756 16.4118 0.243227 16.7369L5.98574 23.3455C6.15863 23.5192 6.38858 23.5928 6.61442 23.5813C6.84104 23.5928 7.07021 23.5192 7.24306 23.3455L12.9856 16.7369C13.3116 16.4118 13.3116 15.884 12.9873 15.5581ZM23.1728 5.38664H11.5918C11.1352 5.38664 10.7646 5.75725 10.7646 6.21469C10.7646 6.67216 11.1352 7.03529 11.5918 7.03529H23.1728C23.6295 7.03529 24.0001 6.67212 24.0001 6.21469C24 5.75725 23.6303 5.38664 23.1728 5.38664ZM23.1728 10.3549H11.5918C11.1352 10.3549 10.7646 10.7255 10.7646 11.1829C10.7646 11.6404 11.1352 11.9977 11.5918 11.9977L23.1728 12.011C23.6295 12.011 24.0001 11.6404 24.0001 11.1829C24 10.7263 23.6303 10.3549 23.1728 10.3549ZM23.1728 15.324H16.5551C16.0984 15.324 15.7279 15.6946 15.7279 16.152C15.7279 16.6095 16.0984 16.9618 16.5551 16.9618H23.1728C23.6295 16.9618 24.0001 16.6095 24.0001 16.152C24 15.6946 23.6303 15.324 23.1728 15.324Z" fill="#608263"/>
</svg>
